<svg xmlns="http://www.w3.org/2000/svg" height="24" viewBox="0 -960 960 960" width="24"><path d="M294.732-148.078q-28.224 0-48.246-20.023-20.023-20.023-20.023-48.246v-501.23h-11.116q-11.635 0-19.855-8.225-8.221-8.225-8.221-19.769 0-11.543 8.221-19.755 8.22-8.211 19.855-8.211h146.268v-.5q0-13.577 9.846-23.423 9.846-9.846 23.616-9.846h170.846q13.577 0 23.423 9.846 9.846 9.846 9.846 23.423v.5h146.543q11.36 0 19.581 8.239t8.221 19.658q0 11.64-8.235 19.852-8.236 8.211-19.649 8.211h-11.308v501.23q0 28.223-20.023 48.246-20.023 20.023-48.246 20.023H294.732Zm383.653-569.499H282.423v501.23q0 5.385 3.462 8.847 3.462 3.462 8.847 3.462h371.344q5.385 0 8.847-3.462 3.462-3.462 3.462-8.847v-501.23ZM408.187-282.923q11.46 0 19.713-8.125 8.254-8.125 8.254-19.759v-300.001q0-11.635-8.24-19.856-8.239-8.221-19.658-8.221-11.64 0-19.851 8.221-8.212 8.221-8.212 19.856v300.001q0 11.634 8.267 19.759t19.727 8.125Zm144.461 0q11.459 0 19.713-8.125 8.253-8.125 8.253-19.759v-300.001q0-11.635-8.239-19.856-8.239-8.221-19.658-8.221-11.64 0-19.852 8.221-8.211 8.221-8.211 19.856v300.001q0 11.634 8.267 19.759t19.727 8.125ZM282.423-717.577v513.539-513.539Z"/></svg>