<svg xmlns="http://www.w3.org/2000/svg" height="24" viewBox="0 -960 960 960" width="24"><path d="M262.117-102.117v-162.269q-38.039-15.93-67.539-42.603-29.5-26.673-50.192-60.629-20.692-33.955-31.481-72.868-10.788-38.913-10.788-79.3 0-148.788 105.753-243.539 105.752-94.751 272.045-94.751 166.292 0 272.226 94.691Q858.076-668.694 858.076-520q0 40.415-10.885 79.371-10.885 38.956-31.577 72.927-20.692 33.97-50.192 60.655-29.5 26.686-67.346 42.697v162.233H262.117Zm55.96-55.96h52.501v-70.769h66.73v70.769h85.577v-70.769h66.73v70.769h52.5v-142.717q37.231-10.636 66.731-31.887 29.5-21.251 50.25-50.182 20.751-28.931 31.885-63.848T802.115-520q0-126.115-88.889-204.115-88.89-78-233.212-78t-233.129 78q-88.808 78-88.808 204.191 0 38.369 11.038 73.281 11.038 34.913 31.828 63.913 20.789 28.999 50.404 50.191 29.615 21.193 66.73 31.654v142.808Zm109-204.038h105.846L480-467.961l-52.923 105.846Zm-86.963-87.693q29.001 0 49.636-20.653 20.634-20.652 20.634-49.653 0-29.001-20.692-49.636-20.693-20.634-49.75-20.634t-49.595 20.692q-20.539 20.693-20.539 49.75t20.653 49.595q20.652 20.539 49.653 20.539Zm280 0q29.001 0 49.636-20.653 20.634-20.652 20.634-49.653 0-29.001-20.692-49.636-20.693-20.634-49.75-20.634t-49.595 20.692q-20.539 20.693-20.539 49.75t20.653 49.595q20.652 20.539 49.653 20.539ZM480-158.077Z"/></svg>