<svg xmlns="http://www.w3.org/2000/svg" height="24" viewBox="0 -960 960 960" width="24" fill="#f1f1f1"><path d="M429.192-349.999v-101.617h129.693q11.432 0 19.658-8.211 8.226-8.212 8.226-19.769 0-11.558-8.226-19.769-8.226-8.211-19.658-8.211H429.192v-101.617h129.693q11.432 0 19.658-8.211 8.226-8.212 8.226-19.769 0-11.558-8.226-19.769-8.226-8.211-19.658-8.211H401.308q-11.654 0-19.865 8.226-8.212 8.225-8.212 19.658v315.154q0 11.653 8.212 19.865 8.211 8.211 19.865 8.211h157.577q11.432 0 19.658-8.211 8.226-8.212 8.226-19.769 0-11.558-8.226-19.769-8.226-8.211-19.658-8.211H429.192ZM215.448-147.271q-28.346 0-48.262-19.915-19.915-19.916-19.915-48.262v-529.104q0-28.346 19.915-48.262 19.916-19.915 48.262-19.915h529.104q28.346 0 48.262 19.915 19.915 19.916 19.915 48.262v529.104q0 28.346-19.915 48.262-19.916 19.915-48.262 19.915H215.448Zm.091-55.96h528.922q4.615 0 8.462-3.846 3.846-3.847 3.846-8.462v-528.922q0-4.615-3.846-8.462-3.847-3.846-8.462-3.846H215.539q-4.615 0-8.462 3.846-3.846 3.847-3.846 8.462v528.922q0 4.615 3.846 8.462 3.847 3.846 8.462 3.846Zm-12.308-553.538v553.538-553.538Z"/></svg>